<svg width="394" height="332" viewBox="0 0 394 332" fill="none" xmlns="http://www.w3.org/2000/svg">
<g clip-path="url(#clip0_2856_113031)">
<g clip-path="url(#clip1_2856_113031)">
<path d="M137.219 62.9252C137.219 62.9252 125.6 51.7715 118.629 44.3358C111.658 36.9 100.04 31.3231 81.4502 35.9705C62.8608 40.6179 58.2134 59.2073 54.4955 75.0084C50.7776 90.8094 34.9766 112.187 28.4703 123.341C21.964 134.495 21.964 159.59 41.9476 163.308C61.9313 167.026 89.8155 165.167 89.8155 165.167L137.219 62.9252Z" fill="#7F2BCD"/>
<path d="M354.246 75.9385C322.179 57.3491 263.623 64.7848 232.95 68.5027C232.253 68.5957 231.602 68.6422 230.905 68.7351C231.277 58.7433 229.465 50.0527 223.655 42.4775C214.361 30.3944 196.701 32.2533 188.335 40.6186C181.039 47.9149 175.88 56.6055 174.672 58.6968C171.651 58.0926 168.491 57.5814 165.099 57.3491C140.932 55.4901 120.484 62.9259 98.1766 90.8101C75.8692 118.694 83.7697 166.097 87.9524 188.405C92.135 210.712 86.0934 238.596 60.5329 240.455C34.9724 242.314 23.354 219.077 23.354 219.077L0.117188 233.019C8.01771 253.468 24.7482 270.198 54.4913 271.128C84.2345 272.057 104.683 248.82 119.554 230.231C134.426 211.642 144.65 204.206 150.227 205.135C155.804 206.065 161.381 218.148 156.733 241.385C152.086 264.622 142.791 328.755 142.791 328.755L218.543 330.614C218.543 330.614 223.191 306.448 229.697 275.775C236.203 245.103 247.822 233.019 269.2 233.019C290.577 233.019 302.196 251.609 302.196 268.339C302.196 285.07 300.802 332.473 300.802 332.473L379.807 329.685C376.089 278.564 377.018 251.609 389.102 193.052C401.185 134.495 386.313 94.528 354.246 75.9385Z" fill="#3B67E4"/>
<path d="M102.831 144.719C106.409 144.719 109.337 141.791 109.337 138.212C109.337 134.634 106.409 131.706 102.831 131.706C99.2521 131.706 96.3242 134.634 96.3242 138.212C96.3242 141.791 99.2521 144.719 102.831 144.719Z" fill="#1D004B"/>
<path d="M155.338 146.577C158.917 146.577 161.845 143.649 161.845 140.071C161.845 136.492 158.917 133.564 155.338 133.564C151.76 133.564 148.832 136.492 148.832 140.071C148.832 143.649 151.76 146.577 155.338 146.577Z" fill="#1D004B"/>
<path d="M239.453 83.3735L244.1 94.016H330.541L333.33 83.3735H239.453Z" fill="#1D004B"/>
<path d="M215.668 182.456C206.792 182.456 201.076 179.853 200.657 179.667C199.867 179.296 199.496 178.32 199.867 177.483C200.239 176.647 201.215 176.321 202.052 176.693C202.191 176.74 217.434 183.618 236.86 173.905C246.341 169.164 249.222 161.543 250.012 156.012C251.36 146.206 247.038 136.447 242.065 131.939C229.053 120.088 223.43 103.962 226.683 87.6497C230.447 68.7349 231.051 54.7463 222.361 43.4067C218.736 38.7129 213.345 35.878 207.164 35.5062C200.518 35.088 193.733 37.4581 189.457 41.7337C181.371 49.8201 175.841 59.8584 175.794 59.9514C175.376 60.7414 174.353 61.0203 173.61 60.602C172.82 60.1837 172.541 59.1613 172.959 58.4177C173.192 57.9995 178.768 47.8682 187.18 39.4565C192.106 34.5303 199.821 31.7883 207.396 32.2995C214.507 32.7643 220.734 36.0174 224.963 41.4549C234.444 53.7704 233.886 68.5025 229.936 88.3003C228.263 96.5726 229.006 104.659 232.074 112.234C234.63 118.601 238.859 124.596 244.343 129.522C250.988 135.564 254.66 146.625 253.312 156.431C252.429 162.751 249.129 171.395 238.394 176.786C229.704 181.155 221.896 182.456 215.668 182.456Z" fill="#1D004B"/>
<path d="M346.999 43.9631C346.859 43.266 346.209 42.7084 345.465 42.7084L304.011 40.8959L296.807 1.30035C296.668 0.603244 296.157 0.0920337 295.46 -0.000913583C294.762 -0.0938609 294.112 0.231455 293.786 0.835612L273.896 38.851L236.949 33.4601C236.206 33.3672 235.509 33.7389 235.23 34.4361C234.951 35.0867 235.137 35.8767 235.694 36.3415L264.601 59.8107L254.795 94.0617H266.785L285.932 75.4258L304.987 94.0617H319.998L308.89 65.5269L346.162 45.7756C346.859 45.4038 347.185 44.7067 346.999 43.9631Z" fill="#7F2BCD"/>
<path d="M146.786 302.032C144.509 317.136 142.836 328.754 142.836 328.754L161.658 329.219C162.541 314.022 153.2 305.843 146.786 302.032Z" fill="#98B1F8"/>
<path d="M174.539 329.546L194.987 330.057C195.778 309.469 179.093 307.703 179.093 307.703L174.539 329.546Z" fill="#98B1F8"/>
<path d="M301.362 312.024C301.084 323.549 300.805 332.472 300.805 332.472L318.976 331.822C316.234 317.787 306.939 313.372 301.362 312.024Z" fill="#98B1F8"/>
<path d="M338.906 309.19L339.65 331.126L358.053 330.475C354.893 310.352 338.906 309.19 338.906 309.19Z" fill="#98B1F8"/>
<path d="M177.084 329.591L197.393 230.835C197.579 229.952 197.022 229.115 196.139 228.929C195.256 228.743 194.419 229.301 194.233 230.184L173.738 329.498L177.084 329.591Z" fill="#1D004B"/>
<path d="M337.745 233.251C337.699 232.368 337.002 231.671 336.072 231.671C335.189 231.718 334.492 232.461 334.492 233.344L337.699 331.171L340.952 331.078L337.745 233.251Z" fill="#1D004B"/>
</g>
</g>
<defs>
<clipPath id="clip0_2856_113031">
<rect width="393.957" height="331.822" fill="white" transform="translate(0.0234375)"/>
</clipPath>
<clipPath id="clip1_2856_113031">
<rect width="393.957" height="331.822" fill="white" transform="translate(0.0234375)"/>
</clipPath>
</defs>
</svg>
