<svg width="275" height="282" viewBox="14.52 5.94 275.15 281.66" fill="none" xmlns="http://www.w3.org/2000/svg">
<rect x="22.5" y="14" width="259" height="259" rx="129.5" fill="#CCDAFF"/>
<g clip-path="url(#clip0_4447_83304)">
<path d="M188.518 222.118C193.445 222.118 197.442 218.094 197.442 213.139C197.442 208.184 193.445 204.16 188.518 204.16C183.59 204.16 179.594 208.184 179.594 213.139C179.594 218.094 183.59 222.118 188.518 222.118Z" fill="#F8F3FF"/>
<path d="M193.056 247.079V222.059H127.412V247.079H97.3281V279.38H127.412H193.056H223.113V247.079H193.056Z" fill="#1246DA"/>
<path d="M112.28 46.1197C112.828 44.1761 112.718 42.0136 112.116 40.4806C110.775 37.1409 107.435 34.7868 101.769 34.4583C96.1021 34.1298 93.091 40.1247 91.0926 43.1359C89.0669 46.1471 85.0703 50.4722 85.0703 50.4722L96.1021 58.4928L99.9345 52.6621C99.9345 52.6621 101.769 51.485 107.107 50.8281C107.517 50.7733 107.928 50.6912 108.284 50.5543C110.391 51.704 112.882 51.3208 113.923 49.651C114.634 48.4739 113.43 47.0778 112.28 46.1197Z" fill="#B98FEA"/>
<path d="M204.141 41.005C202.006 37.7749 198.803 31.3693 192.726 31.7252C186.649 32.081 183.09 34.5721 181.667 38.1581C181.01 39.7732 180.9 42.1 181.475 44.1804C180.243 45.2207 178.956 46.7262 179.723 47.9854C180.818 49.7921 183.501 50.2028 185.773 48.9435C186.156 49.0804 186.567 49.1625 187.032 49.2173C192.753 49.929 194.697 51.1882 194.697 51.1882L198.803 57.4295L210.574 48.8614C210.574 48.8614 206.276 44.2078 204.141 41.005Z" fill="#B98FEA"/>
<path d="M138.122 205.638C138.122 205.638 139.026 213.029 138.204 214.261C137.383 215.493 125.065 218.778 123.422 217.957C121.78 217.135 119.316 217.135 118.495 218.778C117.674 220.42 119.316 221.652 121.78 221.652C124.243 221.652 148.88 222.063 151.344 222.063C153.808 222.063 153.808 218.778 152.165 215.493C150.523 212.208 151.809 204.27 151.809 204.27L138.122 205.638Z" fill="#B98FEA"/>
<path d="M179.707 187.677C179.707 187.677 180.118 193.836 178.886 196.3C177.654 198.764 177.243 202.87 179.297 203.691C181.35 204.512 205.165 203.691 207.629 203.691C210.092 203.691 215.02 204.512 215.02 202.049C215.02 199.585 212.556 199.174 210.092 199.996C210.092 199.996 202.701 199.585 199.417 198.353C196.132 197.121 192.847 195.889 192.847 192.605C192.847 189.32 192.436 186.445 192.436 186.445L179.707 187.677Z" fill="#B98FEA"/>
<path d="M125.266 136.711L129.563 209.472L154.2 210.293L153.926 156.092L177.879 161.348V189.954L200.654 191.131C200.654 191.131 205.472 154.915 200.654 147.907C195.125 139.832 178.207 136.82 178.207 136.82L125.266 136.711Z" fill="#25C876"/>
<path d="M229.943 79.4717C225.974 71.4784 210.371 45.6371 210.234 45.3634C210.179 45.2539 210.042 45.2265 209.96 45.2813L189.84 57.1891C189.758 57.2438 189.703 57.3533 189.758 57.4628L202.733 82.5923C195.561 82.2091 103.803 82.0175 96.4941 81.9901L106.623 60.5287C106.677 60.4466 106.623 60.3097 106.54 60.255L85.1886 47.526C85.0791 47.4712 84.9696 47.4986 84.9148 47.5807C84.8053 47.745 73.7735 65.4287 71.3372 80.1013C69.9137 88.6968 71.0908 95.8688 74.7316 100.878C77.7701 105.039 82.4238 107.585 88.5282 108.461C97.3974 109.748 116.669 109.529 118.914 109.501L118.092 144.376C118.092 144.431 118.12 144.485 118.147 144.54C118.174 144.568 118.229 144.595 118.284 144.595H118.311L185.46 136.547C185.57 136.547 185.652 136.437 185.652 136.328L183.352 110.158C185.734 110.103 206.703 109.501 218.337 106.435C224.277 104.875 228.575 101.481 230.765 96.6353C233.064 91.5163 232.763 85.0834 229.943 79.4717Z" fill="#FC6591"/>
<path d="M170.575 63.8883C170.055 62.3827 168.878 61.8078 168.057 61.5888C166.168 54.0062 159.571 48.4492 151.742 48.4492C143.94 48.4492 137.37 53.9788 135.454 61.4793C134.715 61.5888 133.072 61.9994 132.415 63.8883C131.758 65.8045 134.003 67.2827 134.961 67.8302C135.837 76.6994 143.009 83.5703 151.742 83.5703C160.556 83.5703 167.783 76.5352 168.549 67.529C169.59 66.8447 171.15 65.5307 170.575 63.8883Z" fill="#B98FEA"/>
<path d="M145.058 56.1414C145.058 56.1414 146.426 59.5631 151.545 59.5631C156.664 59.5631 158.033 56.1414 158.033 56.1414C158.033 56.1414 161.564 62.7112 168.079 61.6162C166.218 54.0336 159.593 48.4492 151.737 48.4492C143.908 48.4492 137.338 54.0062 135.422 61.5341C138.159 61.8078 143.443 61.5888 145.058 56.1414Z" fill="#1D004B"/>
<path d="M145.541 66.0076C146.448 66.0076 147.183 65.2722 147.183 64.3651C147.183 63.458 146.448 62.7227 145.541 62.7227C144.634 62.7227 143.898 63.458 143.898 64.3651C143.898 65.2722 144.634 66.0076 145.541 66.0076Z" fill="#1D004B"/>
<path d="M157.728 66.3396C158.635 66.3396 159.371 65.6042 159.371 64.6971C159.371 63.79 158.635 63.0547 157.728 63.0547C156.821 63.0547 156.086 63.79 156.086 64.6971C156.086 65.6042 156.821 66.3396 157.728 66.3396Z" fill="#1D004B"/>
<path d="M149.944 68.7696L152.763 68.6875C153.283 68.6601 153.694 68.2221 153.694 67.702C153.666 67.1819 153.228 66.7439 152.708 66.7713L151.312 66.7987L152.407 63.678C152.571 63.1853 152.298 62.6378 151.805 62.4735C151.285 62.3093 150.737 62.583 150.573 63.0758L149.04 67.5104C148.931 67.8115 148.985 68.14 149.177 68.3864C149.341 68.6327 149.642 68.7696 149.944 68.7696Z" fill="#1D004B"/>
<path d="M157.303 69.0196C156.837 68.7458 156.235 68.9101 155.989 69.3754C155.961 69.4575 155.003 70.9631 152.047 71.1274C148.871 71.319 147.667 69.4849 147.612 69.3754C147.338 68.9374 146.736 68.7732 146.298 69.0469C145.86 69.3207 145.696 69.8955 145.97 70.3609C146.025 70.4704 147.612 73.0709 151.581 73.0709C151.773 73.0709 151.965 73.0709 152.156 73.0436C156.235 72.7972 157.604 70.443 157.659 70.3335C157.932 69.8682 157.768 69.2659 157.303 69.0196Z" fill="#1D004B"/>
<path d="M94.324 82.2422L86.1117 83.8847C85.5916 83.9942 85.2631 84.4869 85.3726 85.007C85.4821 85.4997 85.9748 85.8556 86.4949 85.7461L92.791 84.4869L90.3821 89.3048C90.1631 89.7701 90.3547 90.345 90.8201 90.5914C90.9569 90.6735 91.1212 90.7008 91.2581 90.7008C91.6139 90.7008 91.9698 90.5092 92.0793 90.1807L95.3642 83.6109C95.5284 83.2824 95.5011 82.8992 95.2821 82.5981C95.0631 82.297 94.6798 82.1601 94.324 82.2422Z" fill="#1D004B"/>
<path d="M210.686 82.7334L204.116 82.1859C203.733 82.1585 203.35 82.3775 203.186 82.706C202.994 83.0619 203.049 83.4725 203.295 83.7736L208.77 90.3434C208.961 90.5898 209.235 90.6993 209.509 90.6993C209.728 90.6993 209.947 90.6172 210.084 90.4529C210.494 90.1244 210.549 89.5222 210.221 89.1116L206.224 84.2937L210.522 84.6496C211.069 84.7043 211.507 84.2937 211.562 83.7736C211.617 83.2535 211.206 82.7881 210.686 82.7334Z" fill="#1D004B"/>
</g>
<defs>
<clipPath id="clip0_4447_83304">
<rect width="161.59" height="247.682" fill="white" transform="translate(70.7031 31.6992)"/>
</clipPath>
</defs>
</svg>
