<svg width="200" height="200" viewBox="0 0 200 200" fill="none" xmlns="http://www.w3.org/2000/svg">
  <!-- cheery umbrella in a light rain -->
  <!-- raindrops -->
  <path d="M38 34L34 44M62 22L58 32M146 26L142 36M170 40L166 50M158 64L154 74M44 66L40 76" stroke="#A9D4E6" stroke-width="6" stroke-linecap="round"/>
  <!-- top nub -->
  <rect x="96" y="30" width="8" height="14" rx="4" fill="#914EDB"/>
  <!-- canopy with scalloped edge -->
  <path d="M100 40C64 40 36 66 36 98C42 90 54 90 60 98C66 90 78 90 84 98C90 90 110 90 116 98C122 90 134 90 140 98C146 90 158 90 164 98C164 66 136 40 100 40Z" fill="#1246DA"/>
  <!-- face on canopy -->
  <circle cx="90" cy="70" r="4" fill="#F8F3FF"/>
  <circle cx="112" cy="70" r="4" fill="#F8F3FF"/>
  <path d="M93 81C97 86 105 86 109 81" stroke="#F8F3FF" stroke-width="3.5" stroke-linecap="round"/>
  <ellipse cx="80" cy="77" rx="5" ry="3.5" fill="#FF99B6"/>
  <ellipse cx="122" cy="77" rx="5" ry="3.5" fill="#FF99B6"/>
  <!-- pole + handle -->
  <path d="M100 98V150C100 162 92 168 84 166" stroke="#F49E66" stroke-width="8" stroke-linecap="round"/>
  <!-- puddle -->
  <ellipse cx="100" cy="180" rx="46" ry="8" fill="#A9D4E6"/>
  <!-- splash drops -->
  <path d="M56 168L52 176M148 166L152 174" stroke="#A9D4E6" stroke-width="5" stroke-linecap="round"/>
</svg>
