<svg width="200" height="200" viewBox="0 0 200 200" fill="none" xmlns="http://www.w3.org/2000/svg">
  <!-- cheerful crayon drawing a rainbow -->
  <!-- rainbow arcs -->
  <path d="M26 100C26 64 56 40 92 40" stroke="#FC6591" stroke-width="9" stroke-linecap="round"/>
  <path d="M41 102C41 76 62 57 92 57" stroke="#FEED52" stroke-width="9" stroke-linecap="round"/>
  <path d="M56 104C56 88 71 74 92 74" stroke="#25C876" stroke-width="9" stroke-linecap="round"/>
  <!-- crayon character, tip down -->
  <g transform="rotate(-16 132 100)">
    <rect x="114" y="36" width="36" height="84" rx="9" fill="#914EDB"/>
    <rect x="114" y="52" width="36" height="11" fill="#F8F3FF" opacity="0.55"/>
    <path d="M114 118H150L132 154L114 118Z" fill="#7F2BCD"/>
    <circle cx="126" cy="84" r="3" fill="#F8F3FF"/>
    <circle cx="138" cy="84" r="3" fill="#F8F3FF"/>
    <path d="M125 94C128 97 136 97 139 94" stroke="#F8F3FF" stroke-width="3" stroke-linecap="round"/>
    <ellipse cx="119" cy="90" rx="4" ry="2.7" fill="#FF99B6"/>
    <ellipse cx="145" cy="90" rx="4" ry="2.7" fill="#FF99B6"/>
  </g>
  <!-- drawn squiggle -->
  <path d="M40 176C58 164 76 180 94 170C108 162 118 166 126 172" stroke="#7F2BCD" stroke-width="7" stroke-linecap="round"/>
  <!-- sparkles -->
  <path d="M38 34L41.5 43L51 44L44 50.5L46 60L38 55L30 60L32 50.5L25 44L34.5 43L38 34Z" fill="#FEED52"/>
  <circle cx="170" cy="44" r="5" fill="#FF99B6"/>
</svg>
