<svg viewBox="0 0 28 28" xmlns="http://www.w3.org/2000/svg">
  <circle fill="currentColor" cx="14" cy="7.5" r="5.2"/>
  <circle fill="currentColor" cx="4.9" cy="11.6" r="3.8"/>
  <circle fill="currentColor" cx="23.1" cy="11.6" r="3.8"/>
  <path fill="currentColor" d="M7.7 23.4 L7.7 21.6 Q7.7 14.7 14 14.7 Q20.3 14.7 20.3 21.6 L20.3 23.4 Q20.3 26.4 17.3 26.4 L10.7 26.4 Q7.7 26.4 7.7 23.4 Z"/>
  <path fill="currentColor" d="M1.2 23.4 L1.2 23 Q1.2 18.3 6.6 18.3 L11.5 18.3 L11.5 26.4 L4.2 26.4 Q1.2 26.4 1.2 23.4 Z"/>
  <path fill="currentColor" d="M26.8 23.4 L26.8 23 Q26.8 18.3 21.4 18.3 L16.5 18.3 L16.5 26.4 L23.8 26.4 Q26.8 26.4 26.8 23.4 Z"/>
</svg>
